<?xml version="1.0" standalone="no"?><!DOCTYPE svg PUBLIC "-//W3C//DTD SVG 1.1//EN" "http://www.w3.org/Graphics/SVG/1.1/DTD/svg11.dtd"><svg t="1572510591786" class="icon" viewBox="0 0 1024 1024" version="1.1" xmlns="http://www.w3.org/2000/svg" p-id="39799" xmlns:xlink="http://www.w3.org/1999/xlink" width="200" height="200"><defs><style type="text/css"></style></defs><path d="M871.424 732.16H295.424L211.456 221.696h729.088z" fill="#F9D600" p-id="39800"></path><path d="M969.216 223.744c-9.728-17.92-28.672-28.672-48.64-28.672l-688.128 3.072c-4.608 0-8.704-3.584-9.216-8.192l-15.872-103.424c-4.096-29.184-16.896-42.496-46.592-42.496l-107.52-0.512c-14.848 0-26.624 11.776-26.624 26.624 0 16.384 13.312 29.696 29.184 29.696l98.304 0.512 77.824 569.344c1.536 49.152 41.984 88.576 91.136 88.576h506.88c49.664 0 90.112-39.424 91.136-89.088l53.248-410.624c2.56-11.776 1.024-24.064-5.12-34.816z m-48.64 47.616l-49.152 401.408-0.512 2.048v2.048c0 13.824-11.264 24.576-24.576 24.576H310.784c-13.824 0-24.576-11.264-24.576-24.576v-2.048L227.84 271.36c-2.048-13.824 8.704-26.624 23.04-26.624h646.656c13.824 0 24.576 12.288 23.04 26.624zM801.28 813.056c-53.76 0-97.792 44.032-97.792 97.792 0 53.76 44.032 97.792 97.792 97.792 53.76 0 97.792-44.032 97.792-97.792s-43.52-97.792-97.792-97.792z m0 141.312c-24.064 0-43.52-19.456-43.52-43.52s19.456-43.52 43.52-43.52 43.52 19.456 43.52 43.52-19.456 43.52-43.52 43.52zM348.672 813.056c-53.76 0-97.792 44.032-97.792 97.792 0 53.76 44.032 97.792 97.792 97.792s97.792-44.032 97.792-97.792-44.032-97.792-97.792-97.792z m0 141.312c-24.064 0-43.52-19.456-43.52-43.52s19.456-43.52 43.52-43.52 43.52 19.456 43.52 43.52-19.968 43.52-43.52 43.52z" fill="#555555" p-id="39801"></path></svg>