<?xml version="1.0" standalone="no"?><!DOCTYPE svg PUBLIC "-//W3C//DTD SVG 1.1//EN" "http://www.w3.org/Graphics/SVG/1.1/DTD/svg11.dtd"><svg t="1572510323904" class="icon" viewBox="0 0 1024 1024" version="1.1" xmlns="http://www.w3.org/2000/svg" p-id="24604" xmlns:xlink="http://www.w3.org/1999/xlink" width="200" height="200"><defs><style type="text/css"></style></defs><path d="M810.667 320H704V170.667A106.667 106.667 0 0 0 597.333 64H426.667A106.667 106.667 0 0 0 320 170.667V320H202.667a85.333 85.333 0 0 0-85.334 98.347l59.094 384a85.333 85.333 0 0 0 85.333 72.32h475.093a85.333 85.333 0 0 0 83.84-69.12l73.814-384A85.333 85.333 0 0 0 810.667 320z m-448-149.333a64 64 0 0 1 64-64h170.666a64 64 0 0 1 64 64V320H362.667V170.667zM853.333 413.44l-73.813 384A42.667 42.667 0 0 1 736.853 832H261.76a42.667 42.667 0 0 1-42.667-36.267l-59.093-384a42.667 42.667 0 0 1 42.667-49.066H320v42.666a21.333 21.333 0 0 0 0 3.627 64 64 0 1 0 41.173 0 21.333 21.333 0 0 0 1.494-3.627v-42.666h298.666v42.666a21.333 21.333 0 0 0 0 3.627 64 64 0 1 0 41.174 0 21.333 21.333 0 0 0 1.493-3.627v-42.666h106.667a42.667 42.667 0 0 1 42.666 50.773z m-512 34.56A21.333 21.333 0 1 1 320 469.333 21.333 21.333 0 0 1 341.333 448z m341.334 0a21.333 21.333 0 1 1-21.334 21.333A21.333 21.333 0 0 1 682.667 448z" fill="#CE4141" p-id="24605"></path></svg>