<?xml version="1.0" standalone="no"?><!DOCTYPE svg PUBLIC "-//W3C//DTD SVG 1.1//EN" "http://www.w3.org/Graphics/SVG/1.1/DTD/svg11.dtd"><svg t="1572595974280" class="icon" viewBox="0 0 1024 1024" version="1.1" xmlns="http://www.w3.org/2000/svg" p-id="6719" xmlns:xlink="http://www.w3.org/1999/xlink" width="200" height="200"><defs><style type="text/css"></style></defs><path d="M778.842353 495.585882h-91.256471a18.823529 18.823529 0 0 0-18.672941 18.82353v5.872941a18.823529 18.823529 0 0 0 18.672941 18.823529h91.256471A18.823529 18.823529 0 0 0 798.117647 520.282353v-5.872941a18.823529 18.823529 0 0 0-19.275294-18.82353zM651.444706 423.152941a15.058824 15.058824 0 0 0 12.649412 8.131765 13.552941 13.552941 0 0 0 8.734117-3.312941l75.294118-63.247059a21.534118 21.534118 0 0 0 3.915294-26.202353l-2.710588-4.818824a15.058824 15.058824 0 0 0-12.649412-8.131764 13.402353 13.402353 0 0 0-8.734118 3.312941l-75.294117 63.247059a21.383529 21.383529 0 0 0-3.915294 26.202353zM672.978824 607.171765a13.703529 13.703529 0 0 0-8.734118-3.312941 15.058824 15.058824 0 0 0-12.649412 8.131764l-2.710588 4.818824a21.534118 21.534118 0 0 0 3.915294 26.202353l75.294118 63.247059a13.552941 13.552941 0 0 0 8.734117 3.312941 15.058824 15.058824 0 0 0 12.649412-8.131765l2.710588-4.818824a21.534118 21.534118 0 0 0-3.915294-26.202352zM587.294118 254.945882a52.555294 52.555294 0 0 0-27.557647 10.390589c-42.767059 27.105882-115.651765 76.197647-175.134118 115.350588A111.284706 111.284706 0 0 1 331.294118 399.36h-74.24c-18.823529 0-30.117647 8.734118-30.117647 28.762353v176.941176a26.804706 26.804706 0 0 0 30.117647 30.117647H331.294118a76.649412 76.649412 0 0 1 52.254117 15.058824s135.529412 92.611765 176.489412 121.374118a49.242353 49.242353 0 0 0 26.352941 9.185882c13.402353 0 26.051765-8.583529 26.051765-39.755294V293.496471c-0.301176-30.117647-12.348235-38.550588-25.148235-38.550589z" fill="#FFBE23" p-id="6720"></path><path d="M507.331765 20.630588a496.941176 496.941176 0 1 0 496.941176 496.941177 496.941176 496.941176 0 0 0-496.941176-496.941177z m0 963.764706a466.823529 466.823529 0 1 1 466.823529-466.823529 466.823529 466.823529 0 0 1-466.823529 466.823529z" fill="#FFBE23" p-id="6721"></path></svg>