<?xml version="1.0" standalone="no"?><!DOCTYPE svg PUBLIC "-//W3C//DTD SVG 1.1//EN" "http://www.w3.org/Graphics/SVG/1.1/DTD/svg11.dtd"><svg t="1572675511597" class="icon" viewBox="0 0 1024 1024" version="1.1" xmlns="http://www.w3.org/2000/svg" p-id="4366" xmlns:xlink="http://www.w3.org/1999/xlink" width="200" height="200"><defs><style type="text/css"></style></defs><path d="M479.935212 439.85282c0 22.156626-15.944134 40.11872-35.612079 40.11872L261.768377 479.971539c-19.668968 0-35.613102-17.96107-35.613102-40.11872L226.155275 264.395716c0-22.156626 15.944134-40.11872 35.613102-40.11872L444.323133 224.276996c19.667945 0 35.612079 17.96107 35.612079 40.11872L479.935212 439.85282z" p-id="4367" fill="#d4237a"></path><path d="M797.842679 439.884542c0 22.159696-16.071024 40.124859-35.899628 40.124859L577.915757 480.009402c-19.826558 0-35.899628-17.965164-35.899628-40.124859L542.016129 264.401856c0-22.160719 16.07307-40.123836 35.899628-40.123836l184.027293 0c19.828604 0 35.899628 17.96414 35.899628 40.123836L797.842679 439.884542z" p-id="4368" fill="#d4237a"></path><path d="M479.935212 760.337995c0 22.156626-15.944134 40.11872-35.612079 40.11872L261.768377 800.456714c-19.668968 0-35.613102-17.962094-35.613102-40.11872L226.155275 584.880891c0-22.156626 15.944134-40.11872 35.613102-40.11872L444.323133 544.762171c19.667945 0 35.612079 17.962094 35.612079 40.11872L479.935212 760.337995z" p-id="4369" fill="#d4237a"></path><path d="M797.842679 760.350275c0 22.159696-16.071024 40.124859-35.899628 40.124859L577.915757 800.475134c-19.826558 0-35.899628-17.965164-35.899628-40.124859L542.016129 584.867588c0-22.160719 16.07307-40.124859 35.899628-40.124859l184.027293 0c19.828604 0 35.899628 17.96414 35.899628 40.124859L797.842679 760.350275z" p-id="4370" fill="#d4237a"></path></svg>